<svg xmlns="http://www.w3.org/2000/svg" height="194.11" viewBox="0 0 250 194.11333" width="250"><g transform="matrix(1.25 0 0 -1.25 -470.41 678.33)"><g><path d="m530.9 442.7c0.9141 0.46298 1.8559 1.0645 2.7344 1.8598 0.0119 0.0119 0.008 0.0317-0.0119 0.0396-4.2776 1.389-6.6875 2.4336-6.7113 2.4455-0.46299 0.18994-11.456 4.8633-10.364 21.052 0.11872 1.6897 0.34823 3.601 0.83891 5.627 0.64501 2.6513 0.87453 4.1866 1.1159 6.6678 0.17807 1.8124 0.17016 2.6078 0.12663 4.4438-0.0514 2.0775-0.2216 4.6061-0.5263 6.9329-0.57378 4.3884-1.6501 8.864-2.9045 12.758-0.0633 0.22951-0.12267 0.45507-0.18994 0.68458-3.1974 10.922-10.55 20.205-19.691 26.707-0.17015 0.13058-0.33239 0.25325-0.48276 0.36405-3.9532 2.8689-8.4128 5.1443-13.161 6.7627-5.2155 1.8559-10.601 2.857-15.876 2.857-0.66479 0-1.3336-0.004-1.9746-0.0317-4.618-0.0831-8.8442-0.70437-11.919-1.2782-4.2302-0.78747-9.7741-2.6671-13.478-4.5388-3.3596-1.6936-6.7152-3.878-9.2992-5.8526-2.8966-2.212-5.0612-4.2579-5.9594-5.168-1.1871-1.2069-2.6473-2.7542-3.419-3.5733-0.3324-0.34823-0.0791-0.64897 0.11475-0.68063 0.93784-0.16224 2.1804-0.33635 3.1855-0.51838 1.2504-0.22952 3.1578-0.42341 7.7955-2.1962 5.441-2.0854 10.538-5.6666 12.105-7.2494 1.4483-1.4602 4.2183-5.3263 5.5479-7.202l0.77559-1.0961-0.17807-0.23347c-0.64897-0.83495-1.2663-1.7411-1.757-2.5326 0 0-1.0763-0.55004-2.0419-1.1396-0.6925-0.42737-1.2782-0.90618-1.7926-1.3612-0.34823-0.30469-0.54213-0.87452-0.4155-1.3612 0.27304-1.0447 0.96554-2.7423 1.4087-3.5377l0.10288-0.18599-0.0158-0.13454c-0.19389-1.4166-0.79933-4.5072-1.9152-8.9312-0.85474-3.3833-1.8005-6.5332-2.8135-9.3546-0.42737-1.195-0.94575-2.7106-1.29-3.6564-0.32844-0.9141-0.0396-1.3731 0.48277-1.476 0.86265-0.16224 2.5088-0.36405 2.5088-0.36405-0.39572-4.8673-1.2069-11.238-1.4918-13.078-0.17411-1.1317-0.35218-1.7807-0.62127-2.5523-0.23347-0.67271-0.87056-2.1527-1.0051-2.4416-0.60148-1.2702-0.63709-2.489-0.47485-2.9045 0.24138-0.62918 1.0922-1.2504 2.3387-1.6462 1.3058-0.43528 3.5614-0.79934 5.1363-0.83495 1.472-0.0356 3.5456 0.1385 6.5253 0.6648 1.5393 0.27304 3.3754 0.68458 5.3896 1.2386l0.19785 0.0554 0.0514-0.45111c0.39571-3.3912-0.67667-6.9091-3.324-11.028l-1.5749-2.4376-8.7967 9.8691h-54.446l-11.65-38.867c-1.6541-5.5281 0.277-9.2874 1.5789-11.04 2.1289-2.8689 5.4964-4.5784 9.0104-4.5824h56.468l2.1645 7.2376 6.4699-7.2376h18.713l0.15037 0.51443c1.1238-0.34032 2.2595-0.51443 3.4783-0.51443h29.872c2.0419 0 4.709 0.21368 7.3523 1.844 1.8757-1.2069 4.1273-1.8401 6.5253-1.844h39.682l16.295 54.49h-44.672" fill="#fff"/><path d="m112.02 4.5293c-1.68-0.0186-3.14 0.0289-3.88 0.0957 0.27 0.6876 0.73 2.1358 0.97 2.8184 1.97 5.5446 2.96 10.827 3.46 14.557 0.01 0.044 0.03 0.139 0.03 0.139s-0.49 0.01-0.5-0.03c-0.01-0.034-0.02-0.084-0.03-0.119-2.67-8.78-6.87-14.502-8.92-17.01-1.24 0.0746-2.66 0.282-4.119 0.4848 1.049 1.4493 2.919 4.2733 4.439 7.7852 0 0-0.37 0.05-0.45-0.059-1.14-1.592-3.811-5.1594-6.561-7.316-0.712 0.1039-2.591 0.4894-5.578 1.2363-3.334 0.831-6.456 1.8906-11.877 4.6307-7.771 3.923-13.668 8.711-17.729 12.817-0.069 0.074-0.034 0.152 0.02 0.162 9.383 1.508 20.78 8.745 23.803 11.693 2.023 1.984 2.527 2.732 3.086 3.469 1.929 2.557 6.381 8.501 7.623 10.584-0.337 0.311-3.018 3.349-4.577 6.248-1.389 0.326-3.842 1.681-3.828 2.056 0.04 0.921 1.682 3.202 1.682 3.741 0 0.633-0.603 5.317-2.527 12.974-1.667 6.604-3.542 11.387-4.328 13.746-0.015 0.04-0.011 0.123 0.048 0.133 0.465 0.064 2.668 0.362 3.024 0.426-0.134 6.574-1.469 16.689-2.008 20.159-0.346 2.23-0.773 3.26-1.277 4.57-0.505 1.3-0.846 2.23-1.078 2.72-0.134 0.29-0.07 0.41 0.158 0.49 1.286 0.42 4.422 0.9 5.98 0.86 1.534-0.03 3.388-0.28 6.772-0.77 3.784-0.55 6.562-1.39 10.032-2.61 1.81 4.15 3.2 10.67-3.55 21.19-1.164 1.8-2.786 4.34-4.359 6.8l-13.059-14.66h-29.748l-9.893 33.06h-6.296l9.896-33.06h-27.851l-13.801 46.05c-1.6078 5.38 0.1931 8.93 1.4099 10.57 1.9885 2.68 5.1531 4.28 8.4571 4.28h40.131l27.847 0.01 3.745-12.51 11.205 12.51h19.226l0.62-2.07c1.84 1.35 4.08 2.07 6.53 2.07h37.34c2.29 0 4.99-0.22 7.59-1.91 0.62-0.4 1.16-0.85 1.65-1.32 1.6 1.66 4.16 3.24 8.11 3.24h46.99l18.22-60.9h-72.89c-3.79-4.35-10.19-10.99-17.95-16.03-3.74-2.42-7.84-4.71-8.94-7.51-0.04-0.1-0.03-0.16 0.16-0.17 0.76-0.04 2.36 0.33 4 0.97 0.51 0.2 0.97 0.4 1.32 0.57 0.18 0.09 0.25 0.08 0.37-0.02 0.11-0.1 0.27-0.25 0.27-0.25s2.42-2.21 2.95-2.82c1.03-1.16 2.05-2.68 1.07-4.575-0.25-0.589-0.63-1.04-0.86-1.317-0.32-0.386-0.66-0.92-1.18-1.494-0.8-0.885-1.8-2.25-2.61-3.309-0.58-0.771-2.81-4.079-2.98-5.029-0.15-0.811 0.39-1.425 1.35-1.197 1.41 0.331 2.98 1.458 4.33 2.947 1.88 2.073 3.19 5.832 3.7 8.76 2.23 12.694 13.36 21.164 20.79 23.474 3.99 1.23 7 1.48 8.57 1.51 0.29 0 0.57 0 0.76-0.01 0.12-0.01 0.2-0.11 0.04-0.18-2.49-1.12-16.18-8.33-14.82-29.839 0.16-2.631 0.7-5.633 1.44-8.725-1.47-2.443-2.92-4.936-4.03-6.668-0.09-0.133-0.21-0.322-0.27-0.406-0.03-0.059-0.03-0.43-0.03-0.43 1.91 1.43 3.69 2.943 4.96 4.19 0.25-1.588 0.52-3.453 0.61-5.135-2.29-2.092-5.55-4.729-9.67-6.871-0.06-0.035-0.1-0.053-0.18-0.098-0.06-0.029-0.06-0.629-0.06-0.777 2.39 0.767 5.73 2.087 9.62 4.238 0.1 0.065 0.33 0.175 0.34 0.18-0.39-14.384-5.74-31.366-11.62-39.814-1.19-1.697-2.79-3.983-4.04-5.254-0.22 0.282-0.93 1.157-1.15 1.429-3.14 3.844-6.45 6.832-8.83 8.756-0.03-0.054-0.29-0.539-0.18-0.668 3.39-3.749 5.22-7.27 6.66-10.144 0.22-0.431 0.72-1.603 0.89-2.246-0.55-0.579-0.96-1.009-1.54-1.573-0.95 1.113-2.85 2.928-4.82 4.481-0.05 0.034-0.3-0.228-0.26-0.287 0.73-1.069 2.24-3.615 3.13-6.098-7.54-6.895-19.08-14.321-35.47-16.295-1.62-0.1952-3.53-0.2782-5.22-0.2967zm-32.661 132.19l25.571 28.7 5.88-20.13c2.82-1.94 7.3-4.69 13.69-7.7l-13.18 43.66h-9.78l-18.292-19.83-6.109 19.83h-11.094l13.314-44.53zm-54.414 0.01h11.094l-9.898 33.07h23.056l9.893-33.07h11.125l-12.158 40.64c-0.876 2.94-2.108 3.88-5.041 3.88h-37.93c-0.816 0-1.591-0.39-2.076-1.04-0.416-0.57-0.624-1.56-0.129-3.22l12.064-40.26zm112.92 0.01h37.42c1.32 0 2.16 0.27 2.57 0.82 0.45 0.61 0.44 1.66-0.03 3.22l-3.44 11.53h-11.12l1.25-4.19h-23.05l-6.49 21.68 23.05 0.01 1.38-4.62h11.13l-3.75 12.55c-0.9 2.99-2.11 3.52-5.05 3.52h-37.34c-1.38 0-2.04-0.57-2.45-1.13-0.43-0.59-0.67-1.6-0.23-3.09l10.7-35.81c0.91-3.02 2.67-4.49 5.45-4.49z" transform="matrix(.8 0 0 -.8 376.33 542.66)" fill="#0f2044"/><path d="m107.78 74.23c-0.76 0.028-1.61 0.134-1.65 0.178 0.77 0.119 1.53 0.262 2.26 0.504 0.74 0.252 1.69 0.643 2.1 0.891 0.42 0.247 0.7 0.584 0.72 0.767l-2.62-0.148c-4.25 6.569-4.84 1.202-6.74 1.894-0.83 0.307-1.75 2.408-2.028 3.239 5.048-0.648 11.638-2.393 13.408-3.061 0.54-0.227 1.2-0.57 1.6-0.887 0.44-0.346 0.65-0.746 0.65-0.746s-0.47-0.736-1.73-1.384c-0.99-0.5-1.81-0.718-2.61-0.901-0.79-0.183-1.86-0.312-2.66-0.342-0.2-0.013-0.44-0.013-0.7-0.004zm15.27 32.2c-4.77 2.95-9.71 5.27-14.26 7.04 0.1 0.21 0.26 0.6 0.44 1.07 0.37 0.99 0.88 2.71 0.93 5.5 0.08 5.09-1.39 9.61-3.18 13.27-1.8 3.67-7.013 11.18-7.013 11.18h1.573c4.3-3.74 16.89-13.63 34.57-18.86 9.11-2.69 16.4-2.64 21.56-1.85-4.42-4.19-8.37-6.53-10.84-7.51-0.21-0.08-0.4-0.16-0.59-0.2-1.91 0.05-11.25 3.96-16.92 6.94-0.09 0.04-0.13 0.06-0.25 0.12-0.12 0.07-0.32 0.09-0.79 0.03 0.19-0.12 4.14-3.17 6.36-4.64 2.77-1.84 3.85-2.21 3.85-2.21s-2.03-1.34-3.68-2.07c-1.31-0.59-2.76 0.06-4 0.98-2.93 2.17-8.36 6.85-12.21 10.26-1.17 1.03-2.21 1.98-3.02 2.73-0.01-0.02-0.12-0.1-0.04-0.19s1.76-2.34 2.47-3.4c6.48-9.62 6.55-10.49 6.64-10.89 0.11-0.43-0.38-3.72-1.6-7.3z" transform="matrix(.8 0 0 -.8 376.33 542.66)" fill="#8a8c8e"/><path d="m114.99 30.814c-8.65 0-16.645 3.039-23.105 8.168l8.385 12.129c4.63-3.705 10.47-5.903 16.8-5.853 4.36 0.034 8.86 1.143 12.65 3.053 0.26 0.133 0.34 0.177 0.38 0.197 0.03 0.015 0.03 0.089-0.04 0.129 0 0-0.98 0.381-1.11 0.332-0.04-0.015-0.44-0.173-0.84-0.326-3.15-1.197-6.22-1.782-9.37-1.782-7.13 0-13.92 3.073-18.64 8.43h-0.653l-1.394-1.93s-1.246 0.954-2.092 2.438c2.671-0.193 6.289-0.118 10.699 0.887 1.71 0.385 3.52 0.905 5.45 1.607 9.54 3.487 16.08 10.358 20.09 14.553 0.05 0.049 0.1 0.108 0.15 0.158 2.06 2.152 3.43 3.576 4.69 4.506 3.45 2.236 7.48-0.52 7.37-6.807 0-0.044-0.01-0.088-0.01-0.133-0.01-0.405-0.03-0.827-0.08-1.258-0.45-4.283-1.68-7.019-2.01-7.874-0.05-0.109-0.1-0.232-0.13-0.292-0.04-0.099-0.12-0.291-0.13-0.306 0 0 1.87-1.029 2.86-1.608 0.81-0.45 2.76-1.578 2.76-1.578-1.53-3.734-3.63-7.156-6.25-10.174-0.95 1.237-1.91 2.458-2.84 3.635-0.06 0.074-0.15 0.183-0.17 0.213 1.35 1.573 2.54 3.289 3.55 5.1l1.18-0.801c-0.79-1.425-1.68-2.795-2.66-4.066l-0.03-0.049 1.22-1.44 0.06 0.069c1.5 1.934 2.81 4.056 3.9 6.306l0.03 0.065-4.23 2.72s-0.75-1.489-1.15-2.191c-1.22-2.112-2.75-4.16-4.17-5.619-0.12-0.119-0.24-0.233-0.24-0.233s3.02-3.977 4.04-5.347c-2.92-2.978-6.27-5.377-9.97-7.123-0.48 1.721-0.96 3.404-1.44 4.992 0.51 0.237 1.02 0.499 1.56 0.801 1 0.544 1.98 1.157 2.9 1.82 0.63 0.44 1.01 0.742 1.07 0.791 0.18-0.272 0.73-1.142 0.83-1.301-1.32-1.048-2.76-2.003-4.27-2.834l-0.05-0.035 0.65-1.834 0.08 0.043c2.23 1.227 4.34 2.732 6.27 4.463l0.04 0.045-2.91 4.392-0.07-0.05c-2.56-2.251-5.47-3.961-8.64-5.094l-0.06-0.025s0.14-0.5 0.22-0.817c0.51-1.875 1.07-3.867 1.69-6.281-3.85-1.499-7.89-2.266-12.01-2.266-0.33 0-0.77 0.026-0.84 0.026 0.22 1.894 0.41 3.748 0.59 5.519 0.38-0.015 0.72-0.025 1.08-0.025 0.19 0 0.72 0.015 0.72 0.015 1.72 0.045 3.44 0.248 5.1 0.604 0.12-0.564 0.22-1.118 0.33-1.672-0.19-0.035-0.58-0.124-0.91-0.184-1.37-0.242-3.07-0.459-4.6-0.513h-0.06l-0.09-2.088 0.08 0.006c2.76 0.114 5.5 0.587 8.13 1.408l0.07 0.025-0.02 0.065c-0.33 1.607-1.21 5.633-1.21 5.633l-0.07-0.02c-2.35-0.653-4.78-0.978-7.22-0.978-1.05 0-2.15 0.069-3.28 0.212l-0.06 0.01s-0.62-5.164-0.99-7.875c-4.37 0.431-8.58 1.721-12.51 3.838 1.02 1.85 1.94 3.548 2.8 5.18 2.05-1.172 4.25-2.073 6.53-2.692l-0.45-1.82c-1.84 0.475-3.64 1.123-5.35 1.934l-0.07 0.031-0.08-0.18c-0.28-0.598-0.56-1.191-0.83-1.785l-0.03-0.068 0.05-0.061c1.92-0.875 3.94-1.568 6-2.053 0.81-0.187 1.5-0.325 2.16-0.429l0.06-0.016 1.01 6.274-0.07 0.009c-3.48 0.698-6.76 2.092-9.75 4.135l-0.07 0.045s-2.78-5.016-4.061-7.242c-0.851 0.529-1.801 1.232-1.801 1.232l-1.156-1.871 0.054-0.039c6.114-4.462 13.264-6.82 20.684-6.82 10.95 0 21.24 5.163 28.24 14.166 0.37 0.48 0.73 0.974 1.08 1.469 1.41 2.003 2.64 4.159 3.67 6.41 1.04 2.285 1.86 4.685 2.46 7.138 0.3 1.242 0.55 2.517 0.73 3.793 0.28 1.944 0.43 3.933 0.43 5.916 0 3.685-0.51 7.357-1.49 10.909v0.029l1.43 1.088c1.04-3.745 1.6-7.707 1.6-11.813 0-22.971-17.38-41.59-38.83-41.59zm-16.269 28.467c-4.289-0.044-6.524 0.461-6.707 0.723-0.169 0.252 0.909 1.824 1.22 2.269v0.012c-0.005 0.015-0.539 2.547-1.588 5.93-1.612 5.233-2.373 5.945-1.982 6.514 0.148 0.212 0.272 0.422 0.381 0.615-1.85 6.282-3.662 10.92-3.662 10.92l1.312 0.129 2.157 0.218s2.18-4.784 6.123-10.517c0.029-0.04 0.109-0.149 0.109-0.149h0.004c-0.515-0.415-1.038-1.033-0.459-1.552 1.217-1.089 4.501-2.949 9.361-2.647 6.03 0.376 11.08 4.003 12.84 5.457 0 0.01-0.33 1.018-1.39 1.918-0.75 0.633-1.42 1.045-2.21 1.342-1.96 0.732-9.83 2.18-15.07 2.689-0.598 0.06-2.641 0.199-3.056 0.229-0.268 1.672-0.762 4.67-1.653 9.695-2.067 11.644-3.788 17.814-4.564 20.294-0.015 0-0.031 0.01-0.041 0.01-0.772 0.12-1.682 2.23-1.682 2.23h0.104c0.371 0.01 1.727-0.01 5.041-0.66 6.761-1.32 11.301-2.64 20.281-7 4.29-2.09 12.52-7.999 16.01-11.714 1.23-1.31 2.17-2.389 2.77-3.295 0.19-0.301 0.76-1.042 1.07-1.898 0.01-0.03 0.03-0.104 0.03-0.109 0.65 0.074 0.76 0.598 0.85 1.3 0.17 1.222 0.33 3.004 3.31 3.963 3.75 1.207 5.21 1.682 8.08 2.824 2.49 0.989 4.48 1.959 4.49 2.939 0.01 0.01 0.26 0.14 0.26 0.14s1.76-1.64 1.42-2.03c0.12-0.283-2.65-2.978-4.44-5.347-3.29-4.343-5.26-7.158-4.79-10.412 0.02-0.005 0.05-0.01 0.06-0.01 0.01-0.005 1.59-2.281 1.2-2.627-0.29-0.252-0.58-0.4-0.67-0.44-0.03-0.014-0.02 0-0.02 0 0.48 1.301-4.04 1.361-6 0.362-1.8-0.915-3.3-2.46-5.5-5.16-1.48-1.816-3.16-3.868-5.24-6.01-8.93-9.24-20.86-11.254-27.759-11.145zm49.699 0.348l-0.48 0.266c-0.68 0.375-1.38 0.762-2.07 1.138-0.51 0.287-1.03 0.568-1.54 0.84 0.64 1.924 1.12 3.923 1.4 5.951l0.06 0.342c0.36-0.069 1.32-0.262 1.32-0.262-0.21-1.681-0.54-3.355-0.99-4.963l-0.01-0.058s0.53-0.268 0.63-0.322c0.18-0.085 1.03-0.524 1.03-0.524l0.03 0.09c0.68 2.369 1.13 4.846 1.31 7.363l0.01 0.065s-0.49 0.094-0.58 0.109c-0.75 0.144-1.56 0.287-2.54 0.455 0.07 0.806 0.1 1.578 0.08 2.295 0 0.297-0.01 0.633-0.07 1.672-0.08 1.642-0.32 3.403-0.6 4.922v0.035l1.13 0.861c0.55-2.443 0.84-4.941 0.84-7.42 0-0.662-0.01-1.093-0.01-1.093l1.83-0.217s0.03 0.5 0.03 1.133c-0.01 2.972-0.35 5.935-1.06 8.798l-0.01 0.03 1.09 0.822c0.84-3.2 1.26-6.496 1.26-9.795 0-4.303-0.7-8.517-2.09-12.533zm43.79 77.121c-2.65 0-4.4 1.45-5.35 4.64l-10.7 35.77c-0.4 1.31-0.2 2.39 0.26 3.02 0.49 0.66 1.16 1.09 2.66 1.09h41.06l7.99-26.69h-25.19l-2.67 8.71h14.11l-1.92 6.45h-23.05l6.47-21.62 34.18 0.01 3.4-11.38h-41.25z" transform="matrix(.8 0 0 -.8 376.33 542.66)" fill="#ffb71b"/><path d="m118.74 46.857c-7.14 0-13.92 3.071-18.64 8.428h-0.659l-1.388-1.924v-0.006h-0.006s-1.24 0.955-2.086 2.444c2.666-0.193 6.289-0.123 10.699 0.881-0.53-0.574-0.54-1.281-0.18-2.053 0.02-0.03 0.03-0.058 0.04-0.088 0.27-0.534 0.71-1.103 1.27-1.672 2.25-2.28 9.82-5.541 19.24-1.613 13.53 5.639 11.39 23.021 5.17 21.592 0.05 0.049 0.1 0.103 0.15 0.152 2.06 2.157 3.43 3.576 4.68 4.506 3.71 2.394 8.06-0.929 7.29-8.195-0.45-4.279-1.68-7.019-2.02-7.87-0.03-0.074-0.05-0.134-0.08-0.193-0.04-0.104-0.08-0.204-0.12-0.303-0.02-0.034-0.02-0.058-0.02-0.058-0.53-1.207-1.9-3.513-4.12-6.08-2.41-2.8-4.58-4.397-6.83-5.752-0.27-0.163-0.77-0.42-1.03-0.549 0.02 0.015 0.03 0.089-0.03 0.129-0.01 0.005-1 0.379-1.12 0.33-0.04-0.015-0.27-0.104-0.48-0.188-0.18-0.064-0.34-0.128-0.36-0.138-3.15-1.197-6.22-1.78-9.37-1.78zm-20.47 15.1c-0.896 0.02-2.918 0.15-3.458 0.18-0.563 0.034-1.578 0.142-1.578 0.142s-0.539 2.543-1.588 5.936c-1.617 5.228-2.373 5.941-1.982 6.51 0.144 0.217 0.266 0.419 0.375 0.617-1.845 6.282-3.654 10.918-3.654 10.918l1.31 0.133 4.487-10.664c2.898-8.162 3.421-9.601 4.416-12.159 0.287-0.742 0.88-1.191 1.662-1.517 0.049-0.025 0.074-0.096 0.01-0.096zm5.08 8.334c-4.337 0.152-7.088 1.567-8.473 3.043-0.554 0.594-0.737 1.247-0.584 1.791 0.099 0.346 0.387 0.589 0.629 0.639 0.247 0.044 1.156 0.187 1.166 0.177-0.51-0.41-1.039-1.034-0.455-1.548 1.212-1.089 4.497-2.949 9.367-2.647 6.03 0.371 11.07 3.998 12.83 5.457l2.51 0.084s-1.14-1.178-2.16-1.965c-1.52-1.177-5.46-4.585-12.88-5.015-0.68-0.034-1.33-0.038-1.95-0.016zm23.51 4.314c-0.04 0.02-0.03 0.092-0.01 0.12 0.9 1.775 1.55 3.7 1.87 6.257 1.21 9.582-6.44 19.378-15.82 20.658-5.04 0.69-9.11-0.15-12.86-2.851-0.02-0.015-0.078-0.046-0.093 0.004-0.019 0.049-2.304 6.637-2.304 6.637-1.549-5.751-1.975-13.033 1.517-22.278-0.598 0.06-2.641 0.199-3.056 0.229-0.268 1.672-0.762 4.67-1.653 9.695-2.067 11.644-3.788 17.814-4.564 20.294 0.707-0.11 1.696-0.24 3.037-0.5 6.712-1.31 10.936-2.55 19.776-6.84 4.15-2.02 12.11-7.75 15.4-11.262 2.86-3.042 3.34-4.26 4.02-5.739 0.9-1.934 1.15-3.664 1.2-4.08 0.11-0.005 1.8-0.11 2.44 3.293 0.87 4.571 0.39 5.372 3.21 6.149 5.07 1.404 11.08 3.576 12.91 5.679 0.12-0.283-2.65-2.978-4.44-5.347-3.29-4.343-5.26-7.158-4.79-10.412-0.23 0.054-1.08 0.103-1.28 0.103-1.54 0.114-3.57-0.335-4.63-0.85-2.32-1.137-3.73-2.429-6.19-5.337-0.62-0.742-1.46-1.652-2.34-2.538-0.28-0.277-0.57-0.565-0.97-0.886-0.23-0.183-0.33-0.217-0.38-0.198z" transform="matrix(.8 0 0 -.8 376.33 542.66)" fill="#cd8c2a"/></g></g></svg>
